<?xml version="1.0" encoding="UTF-8" standalone="no"?>
<!-- Created with Inkscape (http://www.inkscape.org/) -->

<svg
   width="240"
   height="240"
   viewBox="0 0 63.500001 63.5"
   version="1.1"
   id="svg5"
   inkscape:version="1.2.2 (732a01da63, 2022-12-09)"
   sodipodi:docname="Beporsoft.TabularSheets.svg"
   inkscape:export-filename="Beporsoft.TabularSheets.png"
   inkscape:export-xdpi="96"
   inkscape:export-ydpi="96"
   xmlns:inkscape="http://www.inkscape.org/namespaces/inkscape"
   xmlns:sodipodi="http://sodipodi.sourceforge.net/DTD/sodipodi-0.dtd"
   xmlns="http://www.w3.org/2000/svg"
   xmlns:svg="http://www.w3.org/2000/svg"
   xmlns:rdf="http://www.w3.org/1999/02/22-rdf-syntax-ns#"
   xmlns:cc="http://creativecommons.org/ns#"
   xmlns:dc="http://purl.org/dc/elements/1.1/">
  <title
     id="title324">Beporsoft.TabularSheets Icon</title>
  <sodipodi:namedview
     id="namedview7"
     pagecolor="#505050"
     bordercolor="#eeeeee"
     borderopacity="1"
     inkscape:showpageshadow="0"
     inkscape:pageopacity="0"
     inkscape:pagecheckerboard="0"
     inkscape:deskcolor="#505050"
     inkscape:document-units="mm"
     showgrid="false"
     inkscape:zoom="1.94"
     inkscape:cx="7.9896907"
     inkscape:cy="172.68041"
     inkscape:window-width="1920"
     inkscape:window-height="1009"
     inkscape:window-x="-8"
     inkscape:window-y="-8"
     inkscape:window-maximized="1"
     inkscape:current-layer="layer2"
     showguides="true">
    <sodipodi:guide
       position="63.500002,-1.6384278e-06"
       orientation="-240,0"
       id="guide293"
       inkscape:locked="false" />
    <sodipodi:guide
       position="63.500002,63.499999"
       orientation="0,-120"
       id="guide295"
       inkscape:locked="false" />
    <sodipodi:guide
       position="31.750002,-1.6384278e-06"
       orientation="0,120"
       id="guide299"
       inkscape:locked="false" />
    <sodipodi:guide
       position="31.75,-1.6384278e-06"
       orientation="-240,0"
       id="guide301"
       inkscape:locked="false" />
    <sodipodi:guide
       position="31.75,63.499999"
       orientation="0,-120"
       id="guide303"
       inkscape:locked="false" />
    <sodipodi:guide
       position="-2.5356446e-08,63.499999"
       orientation="240,0"
       id="guide305"
       inkscape:locked="false" />
    <sodipodi:guide
       position="-2.5356446e-08,-1.6384278e-06"
       orientation="0,120"
       id="guide307"
       inkscape:locked="false" />
    <sodipodi:guide
       position="-5.224935,27.527115"
       orientation="0,-1"
       id="guide352"
       inkscape:locked="false" />
    <sodipodi:guide
       position="-50.425514,28.479794"
       orientation="1,0"
       id="guide354"
       inkscape:locked="false" />
  </sodipodi:namedview>
  <defs
     id="defs2">
    <filter
       inkscape:collect="always"
       style="color-interpolation-filters:sRGB"
       id="filter5185"
       x="-0.020840585"
       y="-0.027124557"
       width="1.0416812"
       height="1.0542491">
      <feGaussianBlur
         inkscape:collect="always"
         stdDeviation="0.33393116"
         id="feGaussianBlur5187" />
    </filter>
    <filter
       inkscape:collect="always"
       style="color-interpolation-filters:sRGB"
       id="filter5240"
       x="-0.065784117"
       y="-0.15788188"
       width="1.1315682"
       height="1.3157638">
      <feGaussianBlur
         inkscape:collect="always"
         stdDeviation="0.77804092"
         id="feGaussianBlur5242" />
    </filter>
    <filter
       inkscape:collect="always"
       style="color-interpolation-filters:sRGB"
       id="filter5993"
       x="-0.038033745"
       y="-0.038033745"
       width="1.0760675"
       height="1.0760675">
      <feGaussianBlur
         inkscape:collect="always"
         stdDeviation="0.95084366"
         id="feGaussianBlur5995" />
    </filter>
    <filter
       inkscape:collect="always"
       style="color-interpolation-filters:sRGB"
       id="filter1425"
       x="-0.041842875"
       y="-0.075316835"
       width="1.0836858"
       height="1.1506337">
      <feGaussianBlur
         inkscape:collect="always"
         stdDeviation="0.7845511"
         id="feGaussianBlur1427" />
    </filter>
  </defs>
  <g
     inkscape:label="Capa 1"
     inkscape:groupmode="layer"
     id="layer1" />
  <g
     inkscape:groupmode="layer"
     id="layer2"
     inkscape:label="Rectangulo"
     transform="translate(0.12666509,1.393316)">
    <rect
       style="fill:#000000;fill-opacity:1;stroke-width:0.37626;opacity:0.59469697;filter:url(#filter5993)"
       id="rect112-3"
       width="60"
       height="60"
       x="2.6052926"
       y="1.4750266"
       ry="7.3861847"
       inkscape:label="Background shadow" />
    <rect
       style="fill:#006a00;fill-opacity:1;stroke-width:0.37626"
       id="rect112"
       width="60"
       height="60"
       x="1.6233349"
       y="0.356684"
       ry="7.3861847"
       inkscape:label="Background" />
    <g
       inkscape:groupmode="layer"
       id="layer3"
       inkscape:label="Spreadsheet"
       transform="translate(-0.43739806,-5.8265941)"
       style="display:none">
      <path
         id="rect4366-4"
         style="opacity:1;mix-blend-mode:normal;fill:#000000;fill-opacity:1;stroke-width:3.17125;stroke-linejoin:round;filter:url(#filter5185)"
         d="m 15.133562,29.824887 c -0.73062,0 -1.318611,0.658638 -1.318611,1.477089 v 26.592287 c 0,0.818431 0.587991,1.477088 1.318611,1.477088 h 35.818261 c 0.730639,0 1.31861,-0.658657 1.31861,-1.477088 V 31.301976 c 0,-0.818451 -0.587971,-1.477089 -1.31861,-1.477089 z m 0.276754,0.700087 h 10.161423 c 0.357812,0 0.645992,0.324954 0.645992,0.728339 v 3.385844 c 0,0.403387 -0.28818,0.727556 -0.645992,0.727556 H 15.410316 c -0.357814,0 -0.645991,-0.324169 -0.645991,-0.727556 v -3.385844 c 0,-0.403385 0.288177,-0.728339 0.645991,-0.728339 z m 12.598958,0 h 10.161423 c 0.357815,0 0.645993,0.324962 0.645993,0.728339 v 3.385844 c 0,0.403379 -0.288178,0.727556 -0.645993,0.727556 H 28.009274 c -0.357807,0 -0.645991,-0.324177 -0.645991,-0.727556 v -3.385844 c 0,-0.403377 0.288184,-0.728339 0.645991,-0.728339 z m 12.598259,0 h 10.161422 c 0.357802,0 0.645992,0.324967 0.645992,0.728339 v 3.385844 c 0,0.403373 -0.28819,0.727556 -0.645992,0.727556 H 40.607533 c -0.357814,0 -0.645993,-0.324183 -0.645993,-0.727556 v -3.385844 c 0,-0.403372 0.288179,-0.728339 0.645993,-0.728339 z m -25.197217,5.810244 h 10.161423 c 0.357812,0 0.645992,0.324955 0.645992,0.728342 v 3.385842 c 0,0.403386 -0.28818,0.728341 -0.645992,0.728341 H 15.410316 c -0.357813,0 -0.645991,-0.324955 -0.645991,-0.728341 V 37.06356 c 0,-0.403387 0.288178,-0.728342 0.645991,-0.728342 z m 12.598958,0 h 10.161423 c 0.357815,0 0.645993,0.324955 0.645993,0.728342 v 3.385842 c 0,0.403386 -0.288178,0.728341 -0.645993,0.728341 H 28.009274 c -0.357805,0 -0.645991,-0.324955 -0.645991,-0.728341 V 37.06356 c 0,-0.403387 0.288186,-0.728342 0.645991,-0.728342 z m 12.598259,0 h 10.161422 c 0.3578,0 0.645992,0.324955 0.645992,0.728342 v 3.385842 c 0,0.403386 -0.288192,0.728341 -0.645992,0.728341 H 40.607533 c -0.357814,0 -0.645993,-0.324955 -0.645993,-0.728341 V 37.06356 c 0,-0.403387 0.288179,-0.728342 0.645993,-0.728342 z m -25.197217,5.811029 h 10.161423 c 0.357812,0 0.645992,0.324171 0.645992,0.727556 v 3.385843 c 0,0.403388 -0.28818,0.728343 -0.645992,0.728343 H 15.410316 c -0.35781,0 -0.645991,-0.324955 -0.645991,-0.728343 v -3.385843 c 0,-0.403385 0.288181,-0.727556 0.645991,-0.727556 z m 12.598958,0 h 10.161423 c 0.357815,0 0.645993,0.324171 0.645993,0.727556 v 3.385843 c 0,0.403388 -0.288178,0.728343 -0.645993,0.728343 H 28.009274 c -0.357804,0 -0.645991,-0.324955 -0.645991,-0.728343 v -3.385843 c 0,-0.403385 0.288187,-0.727556 0.645991,-0.727556 z m 12.598259,0 h 10.161422 c 0.357799,0 0.645992,0.324171 0.645992,0.727556 v 3.385843 c 0,0.403388 -0.288193,0.728343 -0.645992,0.728343 H 40.607533 c -0.357814,0 -0.645993,-0.324955 -0.645993,-0.728343 v -3.385843 c 0,-0.403385 0.288179,-0.727556 0.645993,-0.727556 z m -25.197217,5.810245 h 10.161423 c 0.357812,0 0.645992,0.324955 0.645992,0.728341 v 3.385059 c 0,0.403381 -0.28818,0.728341 -0.645992,0.728341 H 15.410316 c -0.357809,0 -0.645991,-0.32496 -0.645991,-0.728341 v -3.385059 c 0,-0.403386 0.288182,-0.728341 0.645991,-0.728341 z m 12.598958,0 h 10.161423 c 0.357815,0 0.645993,0.324955 0.645993,0.728341 v 3.385059 c 0,0.403373 -0.288178,0.728341 -0.645993,0.728341 H 28.009274 c -0.357802,0 -0.645991,-0.324968 -0.645991,-0.728341 v -3.385059 c 0,-0.403386 0.288189,-0.728341 0.645991,-0.728341 z m 12.598259,0 h 10.161422 c 0.357796,0 0.645992,0.324955 0.645992,0.728341 v 3.385059 c 0,0.403365 -0.288196,0.728341 -0.645992,0.728341 H 40.607533 c -0.357814,0 -0.645993,-0.324976 -0.645993,-0.728341 v -3.385059 c 0,-0.403386 0.288179,-0.728341 0.645993,-0.728341 z m -25.197217,5.810245 h 10.161423 c 0.357812,0 0.645992,0.324961 0.645992,0.728341 v 3.385844 c 0,0.40338 -0.28818,0.727554 -0.645992,0.727554 H 15.410316 c -0.357808,0 -0.645991,-0.324174 -0.645991,-0.727554 v -3.385844 c 0,-0.40338 0.288183,-0.728341 0.645991,-0.728341 z m 12.598958,0 h 10.161423 c 0.357815,0 0.645993,0.32497 0.645993,0.728341 v 3.385844 c 0,0.403369 -0.288178,0.727554 -0.645993,0.727554 H 28.009274 c -0.357799,0 -0.645991,-0.324185 -0.645991,-0.727554 v -3.385844 c 0,-0.403371 0.288192,-0.728341 0.645991,-0.728341 z m 12.598259,0 h 10.161422 c 0.357795,0 0.645992,0.324976 0.645992,0.728341 v 3.385844 c 0,0.403364 -0.288197,0.727554 -0.645992,0.727554 H 40.607533 c -0.357814,0 -0.645993,-0.32419 -0.645993,-0.727554 v -3.385844 c 0,-0.403365 0.288179,-0.728341 0.645993,-0.728341 z"
         inkscape:label="rect4366 shadow" />
      <path
         id="rect4366"
         style="fill:#ffffff;stroke-width:3.17125;stroke-linejoin:round"
         d="m 14.304285,29.050559 c -0.73062,0 -1.318611,0.658638 -1.318611,1.477089 v 26.592287 c 0,0.818431 0.587991,1.477088 1.318611,1.477088 h 35.818261 c 0.730639,0 1.31861,-0.658657 1.31861,-1.477088 V 30.527648 c 0,-0.818451 -0.587971,-1.477089 -1.31861,-1.477089 z m 0.276754,0.700087 h 10.161423 c 0.357812,0 0.645992,0.324954 0.645992,0.728339 v 3.385844 c 0,0.403387 -0.28818,0.727556 -0.645992,0.727556 H 14.581039 c -0.357814,0 -0.645991,-0.324169 -0.645991,-0.727556 v -3.385844 c 0,-0.403385 0.288177,-0.728339 0.645991,-0.728339 z m 12.598958,0 H 37.34142 c 0.357815,0 0.645993,0.324962 0.645993,0.728339 v 3.385844 c 0,0.403379 -0.288178,0.727556 -0.645993,0.727556 H 27.179997 c -0.357807,0 -0.645991,-0.324177 -0.645991,-0.727556 v -3.385844 c 0,-0.403377 0.288184,-0.728339 0.645991,-0.728339 z m 12.598259,0 h 10.161422 c 0.357802,0 0.645992,0.324967 0.645992,0.728339 v 3.385844 c 0,0.403373 -0.28819,0.727556 -0.645992,0.727556 H 39.778256 c -0.357814,0 -0.645993,-0.324183 -0.645993,-0.727556 v -3.385844 c 0,-0.403372 0.288179,-0.728339 0.645993,-0.728339 z M 14.581039,35.56089 h 10.161423 c 0.357812,0 0.645992,0.324955 0.645992,0.728342 v 3.385842 c 0,0.403386 -0.28818,0.728341 -0.645992,0.728341 H 14.581039 c -0.357813,0 -0.645991,-0.324955 -0.645991,-0.728341 v -3.385842 c 0,-0.403387 0.288178,-0.728342 0.645991,-0.728342 z m 12.598958,0 H 37.34142 c 0.357815,0 0.645993,0.324955 0.645993,0.728342 v 3.385842 c 0,0.403386 -0.288178,0.728341 -0.645993,0.728341 H 27.179997 c -0.357805,0 -0.645991,-0.324955 -0.645991,-0.728341 v -3.385842 c 0,-0.403387 0.288186,-0.728342 0.645991,-0.728342 z m 12.598259,0 h 10.161422 c 0.3578,0 0.645992,0.324955 0.645992,0.728342 v 3.385842 c 0,0.403386 -0.288192,0.728341 -0.645992,0.728341 H 39.778256 c -0.357814,0 -0.645993,-0.324955 -0.645993,-0.728341 v -3.385842 c 0,-0.403387 0.288179,-0.728342 0.645993,-0.728342 z m -25.197217,5.811029 h 10.161423 c 0.357812,0 0.645992,0.324171 0.645992,0.727556 v 3.385843 c 0,0.403388 -0.28818,0.728343 -0.645992,0.728343 H 14.581039 c -0.35781,0 -0.645991,-0.324955 -0.645991,-0.728343 v -3.385843 c 0,-0.403385 0.288181,-0.727556 0.645991,-0.727556 z m 12.598958,0 H 37.34142 c 0.357815,0 0.645993,0.324171 0.645993,0.727556 v 3.385843 c 0,0.403388 -0.288178,0.728343 -0.645993,0.728343 H 27.179997 c -0.357804,0 -0.645991,-0.324955 -0.645991,-0.728343 v -3.385843 c 0,-0.403385 0.288187,-0.727556 0.645991,-0.727556 z m 12.598259,0 h 10.161422 c 0.357799,0 0.645992,0.324171 0.645992,0.727556 v 3.385843 c 0,0.403388 -0.288193,0.728343 -0.645992,0.728343 H 39.778256 c -0.357814,0 -0.645993,-0.324955 -0.645993,-0.728343 v -3.385843 c 0,-0.403385 0.288179,-0.727556 0.645993,-0.727556 z m -25.197217,5.810245 h 10.161423 c 0.357812,0 0.645992,0.324955 0.645992,0.728341 v 3.385059 c 0,0.403381 -0.28818,0.728341 -0.645992,0.728341 H 14.581039 c -0.357809,0 -0.645991,-0.32496 -0.645991,-0.728341 v -3.385059 c 0,-0.403386 0.288182,-0.728341 0.645991,-0.728341 z m 12.598958,0 H 37.34142 c 0.357815,0 0.645993,0.324955 0.645993,0.728341 v 3.385059 c 0,0.403373 -0.288178,0.728341 -0.645993,0.728341 H 27.179997 c -0.357802,0 -0.645991,-0.324968 -0.645991,-0.728341 v -3.385059 c 0,-0.403386 0.288189,-0.728341 0.645991,-0.728341 z m 12.598259,0 h 10.161422 c 0.357796,0 0.645992,0.324955 0.645992,0.728341 v 3.385059 c 0,0.403365 -0.288196,0.728341 -0.645992,0.728341 H 39.778256 c -0.357814,0 -0.645993,-0.324976 -0.645993,-0.728341 v -3.385059 c 0,-0.403386 0.288179,-0.728341 0.645993,-0.728341 z m -25.197217,5.810245 h 10.161423 c 0.357812,0 0.645992,0.324961 0.645992,0.728341 v 3.385844 c 0,0.40338 -0.28818,0.727554 -0.645992,0.727554 H 14.581039 c -0.357808,0 -0.645991,-0.324174 -0.645991,-0.727554 V 53.72075 c 0,-0.40338 0.288183,-0.728341 0.645991,-0.728341 z m 12.598958,0 H 37.34142 c 0.357815,0 0.645993,0.32497 0.645993,0.728341 v 3.385844 c 0,0.403369 -0.288178,0.727554 -0.645993,0.727554 H 27.179997 c -0.357799,0 -0.645991,-0.324185 -0.645991,-0.727554 V 53.72075 c 0,-0.403371 0.288192,-0.728341 0.645991,-0.728341 z m 12.598259,0 h 10.161422 c 0.357795,0 0.645992,0.324976 0.645992,0.728341 v 3.385844 c 0,0.403364 -0.288197,0.727554 -0.645992,0.727554 H 39.778256 c -0.357814,0 -0.645993,-0.32419 -0.645993,-0.727554 V 53.72075 c 0,-0.403365 0.288179,-0.728341 0.645993,-0.728341 z" />
    </g>
    <path
       id="rect375-5"
       style="opacity:0.826531;fill:#000000;stroke-width:2.365;stroke-linejoin:round;filter:url(#filter1425)"
       d="M 10.309949,30.02205 V 55.022073 H 55.309787 V 30.02205 Z m 2.050004,2.441194 h 11.999785 v 5.000211 H 12.359953 Z m 14.400155,0 h 11.999784 v 5.000211 H 26.760108 Z m 14.399638,0 h 12.000301 v 5.000211 H 41.159746 Z m -28.799793,7.4998 h 11.999785 v 5.000212 H 12.359953 Z m 14.400155,0 h 11.999784 v 5.000212 H 26.760108 Z m 14.399638,0 h 12.000301 v 5.000212 H 41.159746 Z m -28.799793,7.500318 h 11.999785 v 4.999694 H 12.359953 Z m 14.400155,0 h 11.999784 v 4.999694 H 26.760108 Z m 14.399638,0 h 12.000301 v 4.999694 H 41.159746 Z" />
    <g
       inkscape:groupmode="layer"
       id="layer4"
       inkscape:label="Spreadsheet3x4"
       transform="translate(-0.12666509,-2.4516494)">
      <path
         id="rect375"
         style="opacity:1;fill:#ffffff;stroke-width:2.365;stroke-linejoin:round"
         d="M 9.1234163 29.565518 L 9.1234163 54.565542 L 54.123254 54.565542 L 54.123254 29.565518 L 9.1234163 29.565518 z M 11.17342 32.006713 L 23.173205 32.006713 L 23.173205 37.006924 L 11.17342 37.006924 L 11.17342 32.006713 z M 25.573575 32.006713 L 37.573359 32.006713 L 37.573359 37.006924 L 25.573575 37.006924 L 25.573575 32.006713 z M 39.973213 32.006713 L 51.973514 32.006713 L 51.973514 37.006924 L 39.973213 37.006924 L 39.973213 32.006713 z M 11.17342 39.506513 L 23.173205 39.506513 L 23.173205 44.506725 L 11.17342 44.506725 L 11.17342 39.506513 z M 25.573575 39.506513 L 37.573359 39.506513 L 37.573359 44.506725 L 25.573575 44.506725 L 25.573575 39.506513 z M 39.973213 39.506513 L 51.973514 39.506513 L 51.973514 44.506725 L 39.973213 44.506725 L 39.973213 39.506513 z M 11.17342 47.006831 L 23.173205 47.006831 L 23.173205 52.006525 L 11.17342 52.006525 L 11.17342 47.006831 z M 25.573575 47.006831 L 37.573359 47.006831 L 37.573359 52.006525 L 25.573575 52.006525 L 25.573575 47.006831 z M 39.973213 47.006831 L 51.973514 47.006831 L 51.973514 52.006525 L 39.973213 52.006525 L 39.973213 47.006831 z "
         transform="translate(0.12666509,1.393316)" />
    </g>
    <g
       id="g1359"
       inkscape:label="gTypeparam"
       transform="matrix(0.9216117,0,0,0.86574939,2.5131101,1.9657207)">
      <text
         xml:space="preserve"
         style="font-size:17.0578px;font-family:Consolas;-inkscape-font-specification:'Consolas, Normal';opacity:1;mix-blend-mode:normal;fill:#000000;fill-opacity:1;stroke-width:1.92109;stroke-linejoin:round;filter:url(#filter5240)"
         x="18.310678"
         y="18.489267"
         id="text1228-1"
         transform="matrix(1.180274,0,0,1.5204369,-7.0247902,-3.7577018)"
         inkscape:label="Typeparam shadow"><tspan
           sodipodi:role="line"
           id="tspan1226-0"
           style="font-style:normal;font-variant:normal;font-weight:normal;font-stretch:normal;font-size:17.0578px;font-family:'Cascadia Mono';-inkscape-font-specification:'Cascadia Mono, Normal';font-variant-ligatures:normal;font-variant-caps:normal;font-variant-numeric:normal;font-variant-east-asian:normal;fill:#000000;fill-opacity:1;stroke-width:1.92109"
           x="18.310678"
           y="18.489267"><tspan
             style="fill:#000000;fill-opacity:1;stroke-width:1.92109"
             id="tspan1334-8">&lt;</tspan><tspan
             style="fill:#000000;fill-opacity:1;stroke-width:1.92109"
             id="tspan1336-3">T</tspan><tspan
             style="fill:#000000;fill-opacity:1;stroke-width:1.92109"
             id="tspan1230-2">&gt;</tspan></tspan></text>
      <text
         xml:space="preserve"
         style="font-size:21.9063px;font-family:Consolas;-inkscape-font-specification:'Consolas, Normal';fill:#000000;stroke-width:2.46714;stroke-linejoin:round"
         x="15.490654"
         y="20.099482"
         id="text1228"
         transform="scale(0.90752864,1.1018936)"
         inkscape:label="Typeparam"><tspan
           sodipodi:role="line"
           id="tspan1226"
           style="font-style:normal;font-variant:normal;font-weight:normal;font-stretch:normal;font-size:21.9063px;font-family:'Cascadia Mono';-inkscape-font-specification:'Cascadia Mono, Normal';font-variant-ligatures:normal;font-variant-caps:normal;font-variant-numeric:normal;font-variant-east-asian:normal;stroke-width:2.46714"
           x="15.490654"
           y="20.099482"><tspan
             style="fill:#ffffff;stroke-width:2.46714"
             id="tspan1334">&lt;</tspan><tspan
             style="fill:#ffffff;stroke-width:2.46714"
             id="tspan1336">T</tspan><tspan
             style="fill:#ffffff;stroke-width:2.46714"
             id="tspan1230">&gt;</tspan></tspan></text>
    </g>
  </g>
  <metadata
     id="metadata322">
    <rdf:RDF>
      <cc:Work
         rdf:about="">
        <dc:title>Beporsoft.TabularSheets Icon</dc:title>
      </cc:Work>
    </rdf:RDF>
  </metadata>
</svg>
